<svg xmlns="http://www.w3.org/2000/svg" width="20" height="23" viewBox="0 0 20 23">
  <defs>
    <style>
      .cls-1 {
        fill: #28bd8b;
        fill-rule: evenodd;
      }
    </style>
  </defs>
  <path id="Change_password.svg" data-name="Change password.svg" class="cls-1" d="M47,346H33a2.805,2.805,0,0,1-3-3v-8a3.286,3.286,0,0,1,3-3v-2a7,7,0,0,1,14,0v2a3.287,3.287,0,0,1,3,3v8A2.805,2.805,0,0,1,47,346Zm-1-16a6,6,0,1,0-12,0v2H46v-2Zm3,5a1.776,1.776,0,0,0-2-2H33a1.776,1.776,0,0,0-2,2v8a1.776,1.776,0,0,0,2,2H47a1.776,1.776,0,0,0,2-2v-8Zm-9,7a1.87,1.87,0,0,1-2-2v-2a2,2,0,1,1,4,0v2A1.87,1.87,0,0,1,40,342Zm1-4a1,1,0,0,0-2,0v2a1,1,0,0,0,2,0v-2Z" transform="translate(-30 -323)"/>
</svg>
