<svg xmlns="http://www.w3.org/2000/svg" width="10" height="12.031" viewBox="0 0 10 12.031">
  <defs>
    <style>
      .clip {
        fill: #28bd8b;
        fill-rule: evenodd;
      }
    </style>
  </defs>
  <path id="clip_icon" class="clip" d="M544.606,224.368a0.452,0.452,0,0,0,0-.6,0.369,0.369,0,0,0-.551,0l-2.061,2.245a2.128,2.128,0,0,0,0,2.835,1.73,1.73,0,0,0,2.6,0l4.654-5.069a2.979,2.979,0,0,0,0-3.953,2.424,2.424,0,0,0-3.638,0l-4.643,5.06a3.827,3.827,0,0,0,0,5.09,3.114,3.114,0,0,0,4.672,0l2.061-2.245a0.452,0.452,0,0,0,0-.6,0.367,0.367,0,0,0-.551,0l-2.061,2.245a2.379,2.379,0,0,1-3.571,0,2.926,2.926,0,0,1,0-3.89l4.644-5.06a1.7,1.7,0,0,1,1.263-.569,1.718,1.718,0,0,1,1.263.569,2.017,2.017,0,0,1,.523,1.376,2.038,2.038,0,0,1-.523,1.376l-4.653,5.07a1.011,1.011,0,0,1-1.5,0,1.224,1.224,0,0,1,0-1.635Z" transform="translate(-540 -219)"/>
</svg>
