<svg id="SvgjsSvg1000" xmlns="http://www.w3.org/2000/svg" version="1.1" xmlns:xlink="http://www.w3.org/1999/xlink" xmlns:svgjs="http://svgjs.com/svgjs" width="15" height="15"><defs id="SvgjsDefs1001"></defs><path id="SvgjsPath1007" d="M949.663 127L954.655 122.008C955.1139999999999 121.54899999999999 955.1139999999999 120.804 954.655 120.344C954.1949999999999 119.88499999999999 953.451 119.88499999999999 952.991 120.344L948 125.336L943.008 120.344C942.5490000000001 119.88499999999999 941.8040000000001 119.88499999999999 941.344 120.344C940.8850000000001 120.80399999999999 940.8850000000001 121.54899999999999 941.344 122.008L946.336 127L941.344 131.99099999999999C940.8850000000001 132.451 940.8850000000001 133.195 941.344 133.65499999999997C941.8040000000001 134.11399999999998 942.5490000000001 134.11399999999998 943.008 133.65499999999997L948 128.66299999999998L952.991 133.65499999999997C953.4499999999999 134.11399999999998 954.1949999999999 134.11399999999998 954.655 133.65499999999997C955.1139999999999 133.19499999999996 955.1139999999999 132.45099999999996 954.655 131.99099999999999Z " fill="#b6b6b6" transform="matrix(1,0,0,1,-940,-119)"></path></svg>