<svg id="SvgjsSvg1020" xmlns="http://www.w3.org/2000/svg" version="1.1" xmlns:xlink="http://www.w3.org/1999/xlink" xmlns:svgjs="http://svgjs.com/svgjs" width="21" height="18"><defs id="SvgjsDefs1021"></defs><path id="SvgjsPath1022" d="M34.557 541.49C34.084900000000005 542.419 33.1409 543 31.961100000000002 543L18.0377 543C16.9757 543 15.9137 542.419 15.4418 541.49C14.8519 540.561 14.8519 539.4 15.4418 538.471L22.4035 526.509C22.9935 525.581 23.9375 525 24.9994 525C26.061300000000003 525 27.1234 525.581 27.5954 526.509L34.557 538.471C35.147000000000006 539.4 35.147000000000006 540.561 34.557 541.49ZM33.613 539.168L26.6514 527.206C26.2974 526.626 25.7074 526.277 24.999399999999998 526.277C24.2915 526.277 23.7015 526.6260000000001 23.4655 527.206L16.503899999999998 539.168C16.1498 539.748 16.1498 540.445 16.503899999999998 541.026C16.857799999999997 541.606 17.447699999999998 541.9549999999999 18.037699999999997 541.9549999999999L32.0791 541.9549999999999C32.787 541.9549999999999 33.3771 541.6059999999999 33.613 541.026C33.9671 540.4449999999999 33.9671 539.7479999999999 33.613 539.168ZM24.9994 536.381C24.645400000000002 536.381 24.4094 536.148 24.4094 535.8L24.4094 531.6189999999999C24.4094 531.271 24.645400000000002 531.0379999999999 24.9994 531.0379999999999C25.3533 531.0379999999999 25.5894 531.2709999999998 25.5894 531.6189999999999L25.5894 535.8C25.5894 536.1479999999999 25.3533 536.381 24.9994 536.381ZM24.5274 538.355C24.4094 538.471 24.4094 538.703 24.4094 538.8190000000001C24.4094 539.051 24.4094 539.1680000000001 24.5274 539.2840000000001C24.6749 539.4290000000001 25.0996 539.4290000000001 25.2353 539.2840000000001C25.353299999999997 539.1680000000001 25.4713 538.9350000000001 25.4713 538.8190000000001C25.4715 538.5870000000001 25.4715 538.4710000000001 25.3533 538.355C25.1174 538.1220000000001 24.7634 538.1220000000001 24.5274 538.355Z " fill="#ffffff" transform="matrix(1,0,0,1,-14,-525)"></path></svg>