<svg xmlns="http://www.w3.org/2000/svg" width="20" height="20" viewBox="0 0 20 20">
  <defs>
    <style>
      .cls-1 {
        fill: #28bd8b;
        fill-rule: evenodd;
      }
    </style>
  </defs>
  <path id="_6" data-name="6" class="cls-1" d="M49,529H48v13c0,1.637-.344,3-2,3H36c-1.656,0-2-1.363-2-3V529H33a1.116,1.116,0,0,1-1-.567A1.039,1.039,0,0,1,33,528h4v-1a1.868,1.868,0,0,1,2-2h4a1.868,1.868,0,0,1,2,2v1h4a1.039,1.039,0,0,1,1,.433A1.116,1.116,0,0,1,49,529Zm-5-2a0.941,0.941,0,0,0-1-1H39a1.2,1.2,0,0,0-1.1,1.2L38,528h6v-1Zm3,2H35v13c0,1.024-.036,2,1,2H46c1.036,0,1-.976,1-2h0V529Zm-4,12v-9h1v9H43Zm-5,0v-9h1v9H38Z" transform="translate(-31 -525)"/>
</svg>
