<svg xmlns="http://www.w3.org/2000/svg" width="20" height="24" viewBox="0 0 20 24">
  <defs>
    <style>
      .cls-1 {
        fill: #fff;
        fill-rule: evenodd;
      }
    </style>
  </defs>
  <path id="export" class="cls-1" d="M1041,323v-7h-2v7h2Zm2-7-3-4-3,4h6Zm7.01-5.716v0L1050,326a2.132,2.132,0,0,1-2,2h-16a2.132,2.132,0,0,1-2-2V306a2.132,2.132,0,0,1,2-2l11.69,0h0a0.365,0.365,0,0,1,.26.109h0l5.95,5.908v0.006c0.01,0.008.01,0.018,0.02,0.026,0.02,0.028.04,0.056,0.06,0.089s0.01,0.062.02,0.094c0,0.014.01,0.026,0.01,0.041h0v0ZM1043,305h-11a0.937,0.937,0,0,0-1,1v20a0.937,0.937,0,0,0,1,1s15.89,0.2,16,0a0.982,0.982,0,0,0,1-1V311h-5a2.359,2.359,0,0,1-1-1v-5Zm6,5-5-5v5h5Z" transform="translate(-1030 -304)"/>
</svg>
