<svg id="SvgjsSvg1017" xmlns="http://www.w3.org/2000/svg" version="1.1" xmlns:xlink="http://www.w3.org/1999/xlink" xmlns:svgjs="http://svgjs.com/svgjs" width="21" height="20"><defs id="SvgjsDefs1018"></defs><path id="SvgjsPath1019" d="M31.6104 489.289C31.9391 488.437 32.169799999999995 487.514 32.2945 486.55L34.4878 486.55C34.7365 486.55 34.9382 486.343 34.9382 486.088C34.9382 485.833 34.7365 485.62600000000003 34.4878 485.62600000000003L32.3806 485.62600000000003C32.3951 485.372 32.4031 485.115 32.4031 484.85600000000005C32.4031 484.02700000000004 32.3269 483.21500000000003 32.1794 482.43600000000004C34.3341 482.059 35.999900000000004 479.68100000000004 35.999900000000004 476.812C35.999900000000004 476.557 35.798300000000005 476.35 35.549600000000005 476.35C35.300700000000006 476.35 35.099000000000004 476.557 35.099000000000004 476.812C35.099000000000004 479.253 33.72880000000001 481.269 31.972600000000003 481.534C31.664700000000003 480.395 31.197000000000003 479.348 30.585700000000003 478.452C29.5024 476.865 28.085800000000003 475.92 26.552000000000003 475.743C26.723900000000004 475.265 27.170900000000003 474.923 27.695700000000002 474.923C27.9445 474.923 28.1461 474.717 28.1461 474.462C28.1461 474.207 27.9445 474 27.695700000000002 474C27.0179 474 26.413800000000002 474.328 26.0253 474.837C25.6368 474.328 25.032700000000002 474 24.355 474C24.1062 474 23.9045 474.207 23.9045 474.462C23.9045 474.717 24.106199999999998 474.923 24.355 474.923C24.8797 474.923 25.3268 475.266 25.4987 475.743C23.9649 475.92 22.548299999999998 476.865 21.465 478.452C20.8524 479.35 20.3839 480.399 20.076 481.542C18.296300000000002 481.30699999999996 16.9008 479.27599999999995 16.9008 476.81199999999995C16.9008 476.55699999999996 16.6992 476.34999999999997 16.4503 476.34999999999997C16.2015 476.34999999999997 15.999899999999998 476.55699999999996 15.999899999999998 476.81199999999995C15.999899999999998 479.70199999999994 17.6911 482.09499999999997 19.869699999999998 482.44399999999996C19.7232 483.22099999999995 19.647599999999997 484.03 19.647599999999997 484.85599999999994C19.647599999999997 485.11499999999995 19.655399999999997 485.3709999999999 19.670099999999998 485.6259999999999L17.5629 485.6259999999999C17.314 485.6259999999999 17.112399999999997 485.8329999999999 17.112399999999997 486.0879999999999C17.112399999999997 486.3429999999999 17.313999999999997 486.5499999999999 17.5629 486.5499999999999L19.7561 486.5499999999999C19.8809 487.5139999999999 20.1115 488.4369999999999 20.4403 489.2889999999999C18.5638 489.5499999999999 17.1124 491.2019999999999 17.1124 493.19599999999986C17.1124 493.45099999999985 17.314 493.65799999999984 17.562900000000003 493.65799999999984C17.811700000000002 493.65799999999984 18.0132 493.45099999999985 18.0132 493.19599999999986C18.0132 491.57399999999984 19.2667 490.24699999999984 20.832700000000003 490.17899999999986C21.0224 490.55899999999986 21.233200000000004 490.91999999999985 21.465000000000003 491.2599999999999C22.671200000000002 493.0269999999999 24.290800000000004 493.9999999999999 26.0253 493.9999999999999C27.759700000000002 493.9999999999999 29.3793 493.0269999999999 30.5856 491.2599999999999C30.8174 490.9199999999999 31.0282 490.55899999999986 31.2179 490.17899999999986C32.7846 490.24699999999984 34.039 491.57399999999984 34.039 493.19599999999986C34.039 493.4519999999998 34.240700000000004 493.65799999999984 34.4895 493.65799999999984C34.7383 493.65799999999984 34.9399 493.4519999999998 34.9399 493.19599999999986C34.9399 491.2019999999998 33.487700000000004 489.54899999999986 31.610400000000002 489.2889999999999ZM26.0253 476.636C28.266000000000002 476.636 30.1962 478.666 31.0435 481.565L21.0071 481.565C21.854400000000002 478.666 23.7847 476.636 26.0253 476.636ZM26.0253 493.076C23.005300000000002 493.076 20.5484 489.389 20.5484 484.856C20.5484 484.033 20.6298 483.239 20.7803 482.488L31.270400000000002 482.488C31.421000000000003 483.239 31.502200000000002 484.033 31.502200000000002 484.856C31.502200000000002 489.389 29.0452 493.076 26.0253 493.076Z " fill="#ffffff" transform="matrix(1,0,0,1,-15,-474)"></path></svg>