<svg xmlns="http://www.w3.org/2000/svg" width="110" height="80" viewBox="0 0 110 80">
  <defs>
    <style>
      .load-cloud {
        fill: #d3d3d3;
        fill-opacity: 0.5;
        fill-rule: evenodd;
      }
    </style>
  </defs>
  <path id="bg_img" data-name="bg img" class="load-cloud" d="M845.95,305h-23.6V281.164h7.8a2.439,2.439,0,0,0,1.978-3.864l-15.172-20.983a2.418,2.418,0,0,0-3.933,0L797.85,277.3a2.433,2.433,0,0,0,1.978,3.864h7.8V305H781.2c-11.8-.651-21.2-11.682-21.2-23.634a22.378,22.378,0,0,1,11.1-19.32,15.021,15.021,0,0,1-.921-5.235,15.219,15.219,0,0,1,15.239-15.231,14.967,14.967,0,0,1,5.214.921A30.511,30.511,0,0,1,848.6,252.565c12.16,2.09,21.4,13.345,21.4,26.083C870,292.262,859.391,304.057,845.95,305Z" transform="translate(-760 -225)"/>
</svg>
