<svg id="SvgjsSvg1000" xmlns="http://www.w3.org/2000/svg" version="1.1" xmlns:xlink="http://www.w3.org/1999/xlink"
     xmlns:svgjs="http://svgjs.com/svgjs" width="18" height="21">
    <defs id="SvgjsDefs1001"></defs>
    <path id="SvgjsPath1007"
          d="M1183.74 35.6428L1179.68 39.8849C1179.51 40.062400000000004 1179.29 40.1512 1179.0600000000002 40.1512C1178.8400000000001 40.1512 1178.6200000000001 40.062400000000004 1178.4500000000003 39.8849C1178.1100000000004 39.529900000000005 1178.1100000000004 38.9542 1178.4500000000003 38.5993L1181.0300000000002 35.909L1170.3500000000001 35.909C1169.8700000000001 35.909 1169.4800000000002 35.501799999999996 1169.4800000000002 34.9998C1169.4800000000002 34.4977 1169.8700000000003 34.0906 1170.3500000000001 34.0906L1181.0300000000002 34.0906L1178.4500000000003 31.400000000000002C1178.1100000000004 31.044900000000002 1178.1100000000004 30.469400000000004 1178.4500000000003 30.114300000000004C1178.7900000000002 29.759500000000003 1179.3400000000004 29.759500000000003 1179.6800000000003 30.114300000000004L1183.7400000000002 34.3569C1184.0800000000002 34.711800000000004 1184.0800000000002 35.2875 1183.7400000000002 35.6428ZM1175.29 25.9088C1175.29 25.4066 1174.8999999999999 24.9997 1174.42 24.9997L1166.8700000000001 24.9997C1166.39 24.9997 1166.0000000000002 25.4066 1166.0000000000002 25.9088L1166.0000000000002 44.0907C1166.0000000000002 44.5927 1166.3900000000003 44.9998 1166.8700000000001 44.9998L1174.42 44.9998C1174.9 44.9998 1175.29 44.5927 1175.29 44.0907C1175.29 43.5886 1174.8999999999999 43.1815 1174.42 43.1815L1167.74 43.1815L1167.74 26.817899999999998L1174.42 26.817899999999998C1174.9 26.817899999999998 1175.29 26.4108 1175.29 25.9088Z "
          fill="#62687e" transform="matrix(1,0,0,1,-1166,-24)"></path>
</svg>