<svg id="SvgjsSvg1000" xmlns="http://www.w3.org/2000/svg" version="1.1" xmlns:xlink="http://www.w3.org/1999/xlink"
     xmlns:svgjs="http://svgjs.com/svgjs" width="19" height="14">
    <defs id="SvgjsDefs1001"></defs>
    <path id="SvgjsPath1007"
          class="test-run-list-svg"
          d="M853 326C852.964 325.939 852.792 325.701 852.72 325.749L850.879 326.846C850.638 326.98 850.404 326.98 850.1750000000001 326.846L848.551 325.914C848.4910000000001 325.877 848.048 325.95099999999996 848 326L842 332L859 332ZM858.98294 322.01024L854.03053 324.98169C854.00335 324.98236 853.98586 324.98547 854 325.00001000000003C853.99291 325.00473000000005 853.99423 325.00431000000003 854.00093 325.00094L858.99787 329.99788C858.9992900000001 329.98935 859 329.98039 859 329.97101000000004L859 322.25801C859 322.19801 858.976 322.15501 858.928 322.13101C858.88841 322.10659 858.9481 322.04124 858.98294 322.01025ZM847 325L842 322C841.952 321.988 842.12 322.228 842.072 322.24C842.024 322.265 842 322.307 842 322.368L842 329.65999999999997C842 329.70899999999995 842.03 329.75199999999995 842.09 329.78799999999995L842.144 329.78799999999995C842.17849 329.78799999999995 842.08712 329.90494999999993 842.03418 329.96581999999995ZM858.856 330.117C858.88 330.117 858.898 330.11100000000005 858.91 330.09900000000005C858.94601 330.0846 858.9712099999999 330.06335000000007 858.98561 330.03548000000006C858.94021 330.07324000000006 858.82864 330.1170000000001 858.856 330.1170000000001ZM847.089 325.128C847.089 325.08693 847.0602 325.04165 847.0226100000001 325.01392999999996C847.0547500000001 325.05675999999994 847.089 325.17702999999995 847.089 325.128ZM854.145 324.963C854.1382199999999 324.98391000000004 854.0812999999999 324.98119 854.03958 324.98154C854.08373 324.96029 854.145 324.93507 854.145 324.963ZM842 330C841.99645 330.00711 842.01191 329.99142 842.03418 329.96582ZM858.99787 329.99787C858.9956000000001 330.01151 858.9915100000001 330.02405 858.9856100000001 330.03547999999995C859.0016 330.02218999999997 859.0093800000001 330.00962999999996 859.0000000000001 329.99999999999994ZM858.98294 322.01024L859 322C859.01224 321.98742 859.00089 321.99426 858.98294 322.01024ZM847 325C847.00777 325.00388 847.01536 325.00858 847.02261 325.01393C847.01477 325.00348 847.00706 324.99764 847 325ZM858 318L859 319L859 320.321C859 320.406 858.958 320.449 858.874 320.449C858.801 320.461 858.735 320.492 858.6750000000001 320.54L850.59 325.34700000000004C850.5780000000001 325.35900000000004 850.5540000000001 325.365 850.518 325.365C850.4820000000001 325.365 850.4580000000001 325.35900000000004 850.446 325.34700000000004L842.1080000000001 320.54C842.0360000000001 320.492 842.0000000000001 320.44300000000004 842.0000000000001 320.394L842.0000000000001 319L843.0000000000001 318Z "
          fill="#243746" transform="matrix(1,0,0,1,-841,-318)"></path>
</svg>