<svg xmlns="http://www.w3.org/2000/svg" width="20" height="19" viewBox="0 0 20 19">
  <defs>
    <style>
      .cls-1 {
        fill: #28bd8b;
        fill-rule: evenodd;
      }
    </style>
  </defs>
  <path id="My_organizations.svg" data-name="My organizations.svg" class="cls-1" d="M33,378H49a2,2,0,0,1,2,2v12a2,2,0,0,1-2,2H33a2,2,0,0,1-2-2V380A2,2,0,0,1,33,378Zm0,1H49a1,1,0,0,1,1,1v12a1,1,0,0,1-1,1H33a1,1,0,0,1-1-1V380A1,1,0,0,1,33,379Zm4-4h8a1,1,0,0,1,1,1v2a1,1,0,0,1-1,1H37a1,1,0,0,1-1-1v-2A1,1,0,0,1,37,375Zm1,1h6a1,1,0,0,1,1,1v1H37v-1A1,1,0,0,1,38,376Zm2,6h2a1,1,0,0,1,1,1v3a1,1,0,0,1-1,1H40a1,1,0,0,1-1-1v-3A1,1,0,0,1,40,382Zm0,1h2v3H40v-3Zm-8,1h7v1H32v-1Zm11,0h7v1H43v-1Z" transform="translate(-31 -375)"/>
</svg>
