<svg xmlns="http://www.w3.org/2000/svg" width="18" height="21" viewBox="0 0 18 21">
  <defs>
    <style>
      .cls-1 {
        fill: #28bd8b;
        fill-rule: evenodd;
      }
    </style>
  </defs>
  <path id="Notifications.svg" class="cls-1" d="M48,437v-6c0-4.05-3.5-6-7-6s-7,1.95-7,6v6l-2,5v1h6c0.331,1.673,1.272,3,3,3s2.669-1.325,3-3h6v-1Zm-7,8c-1.687,0-1.705-1.147-2-2h4C42.7,443.853,42.688,445,41,445Zm-8-3,2-5v-6c0-3.24,2.844-5,6-5s6,1.76,6,5v6l2,5H33Z" transform="translate(-32 -425)"/>
</svg>
