<svg xmlns="http://www.w3.org/2000/svg" width="20" height="20" viewBox="0 0 20 20">
  <defs>
    <style>
      .cls-1 {
        fill: #28bd8b;
        fill-rule: evenodd;
      }
    </style>
  </defs>
  <path id="_3" data-name="3" class="cls-1" d="M40,390.2c2.481,0,4.8-2.568,4.8-5.6S42.481,379,40,379c-3.251,0-4.8,2.54-4.8,5.6C35.2,387.632,37.519,390.2,40,390.2Zm0-10.4c1.93,0,4,2.318,4,4.8s-2.07,4.8-4,4.8-4-2.319-4-4.8S37.42,379.8,40,379.8Zm3.2,9.6c-0.4,0-.4.8,0,0.8,1.93,0,4,1.27,4,3.2a1.169,1.169,0,0,1-.8.8H33.6a1.169,1.169,0,0,1-.8-0.8c0-1.93,2.07-3.2,4-3.2,0.582,0,.282-0.8,0-0.8-2.481,0-4.8,1.618-4.8,4.1a1.5,1.5,0,0,0,1.5,1.5H46.4a1.591,1.591,0,0,0,1.6-1.5C48,391.019,45.681,389.4,43.2,389.4Zm0.8-3.6c2.171,0,4.2-2.247,4.2-4.9S46.171,376,44,376a3.9,3.9,0,0,0-3.953,3.036,0.665,0.665,0,0,0,.789-0.02A3.33,3.33,0,0,1,44,376.7c1.688,0,3.5,2.029,3.5,4.2s-1.811,4.2-3.5,4.2C44,385.1,43.985,385.8,44,385.8Zm2,4.2h3.6a1.392,1.392,0,0,0,1.4-1.313c0-2.17-2.029-3.587-4.2-3.587-0.353,0-.353.7,0,0.7,1.688,0,3.5,1.111,3.5,2.8,0,0.241-.059.4-0.3,0.4H46C45.263,389.281,45.414,390.062,46,390Z" transform="translate(-31.5 -375.5)"/>
</svg>
