<svg xmlns="http://www.w3.org/2000/svg" width="20" height="20" viewBox="0 0 20 20">
  <defs>
    <style>
      .cls-1 {
        fill: #28bd8b;
        fill-rule: evenodd;
      }
    </style>
  </defs>
  <path id="Personal.svg" class="cls-1" d="M40,289c3.1,0,6-3.21,6-7s-2.9-7-6-7c-4.063,0-6,3.175-6,7C34,285.79,36.9,289,40,289Zm0-13c2.412,0,5,2.9,5,6s-2.588,6-5,6-5-2.9-5-6S36.775,276,40,276Zm4,12c-0.5,0-.5,1,0,1,2.412,0,5,1.588,5,4a1.461,1.461,0,0,1-1,1H32a1.461,1.461,0,0,1-1-1c0-2.412,2.588-4,5-4,0.727,0,.352-1,0-1-3.1,0-6,2.023-6,5.125A1.877,1.877,0,0,0,31.875,295H48a1.988,1.988,0,0,0,2-1.875C50,290.024,47.1,288,44,288Z" transform="translate(-30 -275)"/>
</svg>
