<svg id="SvgjsSvg1008" xmlns="http://www.w3.org/2000/svg" version="1.1" xmlns:xlink="http://www.w3.org/1999/xlink" xmlns:svgjs="http://svgjs.com/svgjs" width="21" height="17"><defs id="SvgjsDefs1009"></defs><path id="SvgjsPath1010" d="M32.0709 293.857C32.0229 293.90400000000005 31.9675 293.939 31.9083 293.963C31.8491 293.987 31.7861 293.999 31.723200000000002 293.999C31.5974 293.999 31.471500000000002 293.951 31.375400000000003 293.857L29.835500000000003 292.336C29.643400000000003 292.146 29.643400000000003 291.839 29.835500000000003 291.649C30.027500000000003 291.459 30.338900000000002 291.459 30.530900000000003 291.649L31.713700000000003 292.817C33.0927 291.302 33.892700000000005 289.394 34.0028 287.36L32.3301 287.36C32.0585 287.36 31.8383 287.142 31.8383 286.874C31.8383 286.60600000000005 32.0585 286.389 32.3301 286.389L34.002700000000004 286.389C33.888400000000004 284.29900000000004 33.04090000000001 282.399 31.710400000000003 280.935L30.530900000000003 282.099C30.434900000000003 282.194 30.309 282.24199999999996 30.183100000000003 282.24199999999996C30.0573 282.24199999999996 29.931400000000004 282.19399999999996 29.835500000000003 282.099C29.643400000000003 281.90999999999997 29.643400000000003 281.602 29.835500000000003 281.413L31.014900000000004 280.248C29.532200000000003 278.93399999999997 27.607900000000004 278.097 25.491700000000005 277.984L25.491700000000005 279.63599999999997C25.491700000000005 279.90399999999994 25.271600000000007 280.12199999999996 25.000000000000004 280.12199999999996C24.728300000000004 280.12199999999996 24.508100000000002 279.90399999999994 24.508100000000002 279.63599999999997L24.508100000000002 277.984C22.391900000000003 278.097 20.4677 278.93399999999997 18.984900000000003 280.248L20.164300000000004 281.413C20.356400000000004 281.60200000000003 20.356400000000004 281.91 20.164300000000004 282.099C20.068400000000004 282.194 19.942500000000003 282.24199999999996 19.816600000000005 282.24199999999996C19.690800000000003 282.24199999999996 19.564900000000005 282.19399999999996 19.468800000000005 282.099L18.289300000000004 280.935C16.958900000000003 282.399 16.111400000000003 284.299 15.997100000000005 286.389L17.669600000000006 286.389C17.941200000000006 286.389 18.161400000000008 286.606 18.161400000000008 286.874C18.161400000000008 287.142 17.94120000000001 287.36 17.669600000000006 287.36L15.996900000000005 287.36C16.107100000000006 289.394 16.907100000000007 291.301 18.286200000000004 292.817L19.468800000000005 291.649C19.660900000000005 291.459 19.972200000000004 291.459 20.164300000000004 291.649C20.356400000000004 291.839 20.356400000000004 292.146 20.164300000000004 292.336L18.648800000000005 293.832C18.641300000000005 293.841 18.633900000000004 293.849 18.625700000000005 293.858C18.529700000000005 293.952 18.403800000000004 294 18.277900000000006 294C18.152000000000005 294 18.026200000000006 293.953 17.930200000000006 293.858C17.930000000000007 293.858 17.929700000000008 293.857 17.929400000000005 293.857C17.929200000000005 293.857 17.929100000000005 293.857 17.929000000000006 293.857C17.928700000000006 293.85600000000005 17.928400000000007 293.85600000000005 17.928100000000004 293.85600000000005C16.039800000000003 291.99100000000004 14.999900000000004 289.511 14.999900000000004 286.874C14.999900000000004 284.17600000000004 16.101600000000005 281.72900000000004 17.883300000000006 279.94500000000005C17.897200000000005 279.92600000000004 17.911900000000006 279.90900000000005 17.928900000000006 279.89200000000005C17.945700000000006 279.87500000000006 17.963700000000006 279.86100000000005 17.982200000000006 279.84700000000004C19.788900000000005 278.088 22.268000000000008 277.00000000000006 25.000000000000007 277.00000000000006C27.731800000000007 277.00000000000006 30.210900000000006 278.0880000000001 32.01760000000001 279.84700000000004C32.03610000000001 279.86100000000005 32.054100000000005 279.87500000000006 32.07090000000001 279.89200000000005C32.08780000000001 279.90900000000005 32.10260000000001 279.92600000000004 32.11650000000001 279.94500000000005C33.89840000000001 281.72900000000004 34.99990000000001 284.17600000000004 34.99990000000001 286.874C34.99990000000001 289.512 33.95970000000001 291.99100000000004 32.07090000000001 293.857ZM25 285.067C25.0663 285.067 25.1324 285.071 25.1987 285.07800000000003L26.619899999999998 281.57500000000005C26.720999999999997 281.326 27.007099999999998 281.20500000000004 27.259299999999996 281.30500000000006C27.511499999999995 281.4050000000001 27.633899999999997 281.68800000000005 27.532999999999998 281.93700000000007L26.122799999999998 285.4120000000001C26.159399999999998 285.4360000000001 26.196199999999997 285.4590000000001 26.2319 285.48500000000007C26.2987 285.5330000000001 26.359099999999998 285.5930000000001 26.4071 285.6580000000001C26.8764 286.29600000000005 26.9605 287.0570000000001 26.6318 287.6940000000001C26.3175 288.30300000000005 25.6922 288.6820000000001 25 288.6820000000001C24.5755 288.6820000000001 24.1495 288.5370000000001 23.7679 288.2630000000001C23.7015 288.21600000000007 23.6411 288.15600000000006 23.5932 288.09100000000007C23.1236 287.4530000000001 23.0395 286.69200000000006 23.3681 286.05500000000006C23.682499999999997 285.44500000000005 24.307799999999997 285.06700000000006 25 285.06700000000006ZM24.3711 287.495C24.5783 287.638 24.7898 287.71 25 287.71C25.3203 287.71 25.6097 287.53499999999997 25.7553 287.253C25.911099999999998 286.95099999999996 25.8647 286.58799999999997 25.6288 286.253C25.536099999999998 286.18899999999996 25.4428 286.14 25.348899999999997 286.10499999999996C25.338099999999997 286.10099999999994 25.327299999999997 286.09799999999996 25.316599999999998 286.09399999999994C25.3131 286.0919999999999 25.31 286.09099999999995 25.3067 286.08899999999994C25.2045 286.05499999999995 25.1021 286.03799999999995 25 286.03799999999995C24.6795 286.03799999999995 24.3901 286.21299999999997 24.2446 286.49499999999995C24.0887 286.79799999999994 24.135099999999998 287.15999999999997 24.3711 287.49499999999995Z " fill="#ffffff" transform="matrix(1,0,0,1,-14,-277)"></path></svg>