<svg id="SvgjsSvg1014" xmlns="http://www.w3.org/2000/svg" version="1.1" xmlns:xlink="http://www.w3.org/1999/xlink" xmlns:svgjs="http://svgjs.com/svgjs" width="22" height="16"><defs id="SvgjsDefs1015"></defs><path id="SvgjsPath1016" d="M34.7397 382.162L25.1834 386.58C25.1254 386.60699999999997 25.0631 386.621 25.000899999999998 386.621C24.938499999999998 386.621 24.876299999999997 386.60699999999997 24.818199999999997 386.58L15.260099999999998 382.162C15.100899999999998 382.08799999999997 14.998899999999997 381.926 14.999699999999997 381.74699999999996C15.000599999999997 381.56899999999996 15.104099999999997 381.40799999999996 15.264099999999997 381.33599999999996L24.8221 377.03799999999995C24.9363 376.98599999999993 25.0653 376.98599999999993 25.179499999999997 377.03799999999995L34.7359 381.33599999999996C34.896 381.40799999999996 34.9993 381.56899999999996 35.0001 381.74699999999996C35.0009 381.92599999999993 34.898900000000005 382.08799999999997 34.739700000000006 382.162ZM25.0009 377.946L16.529000000000003 381.75500000000005L25.0009 385.672L33.471000000000004 381.75500000000005ZM25.0007 388.332L34.3742 383.998L34.7402 384.82099999999997L25.1838 389.23999999999995C25.125400000000003 389.268 25.063100000000002 389.28099999999995 25.0009 389.28099999999995C24.9385 389.28099999999995 24.8763 389.268 24.8182 389.23999999999995L15.260100000000001 384.82099999999997L15.625300000000001 383.998ZM15.6253 386.717L15.2601 387.53999999999996L24.818199999999997 391.95899999999995C24.876299999999997 391.98699999999997 24.938499999999998 391.99999999999994 25.000899999999998 391.99999999999994C25.0631 391.99999999999994 25.1254 391.98699999999997 25.183799999999998 391.95899999999995L34.7402 387.53999999999996L34.3742 386.717L25.000700000000002 391.051Z " fill="#ffffff" transform="matrix(1,0,0,1,-14,-376)"></path></svg>