<svg id="SvgjsSvg1023" xmlns="http://www.w3.org/2000/svg" version="1.1" xmlns:xlink="http://www.w3.org/1999/xlink" xmlns:svgjs="http://svgjs.com/svgjs" width="22" height="20"><defs id="SvgjsDefs1024"></defs><path id="SvgjsPath1025" d="M33.9682 586.099L32.564400000000006 586.3330000000001C32.42230000000001 586.801 32.23010000000001 587.2570000000001 32.0003 587.695L32.827600000000004 588.8570000000001C33.1786 589.3500000000001 33.1201 590.022 32.6938 590.4490000000001L31.448800000000002 591.6940000000001C31.2148 591.9280000000001 30.905700000000003 592.0570000000001 30.5756 592.0570000000001C30.3166 592.0570000000001 30.065900000000003 591.9780000000002 29.857000000000003 591.8270000000001L28.699600000000004 591.0000000000001C28.265200000000004 591.2300000000001 27.809700000000003 591.4180000000001 27.337600000000002 591.5640000000001L27.099500000000003 592.9680000000001C26.9993 593.565 26.485300000000002 594.0000000000001 25.879500000000004 594.0000000000001L24.116300000000003 594.0000000000001C23.510600000000004 594.0000000000001 22.9966 593.5650000000002 22.896300000000004 592.9680000000001L22.662400000000005 591.5640000000001C22.207000000000004 591.422 21.764200000000006 591.2420000000001 21.342200000000005 591.0210000000001L20.168100000000006 591.8570000000001C19.959200000000006 592.0070000000001 19.712700000000005 592.0860000000001 19.453700000000005 592.0860000000001C19.123600000000003 592.0860000000001 18.814500000000006 591.9570000000001 18.580500000000004 591.7230000000001L17.335400000000003 590.4780000000001C16.905100000000004 590.052 16.850800000000003 589.379 17.201800000000002 588.8860000000001L18.024800000000003 587.7410000000001C17.7908 587.3070000000001 17.5987 586.8510000000001 17.452400000000004 586.3830000000002L16.031900000000004 586.1410000000002C15.434400000000004 586.0410000000002 14.999900000000004 585.5270000000002 14.999900000000004 584.9210000000002L14.999900000000004 583.1620000000001C14.999900000000004 582.5560000000002 15.434400000000004 582.0420000000001 16.031900000000004 581.9420000000001L17.418900000000004 581.7080000000001C17.561000000000003 581.2360000000001 17.744900000000005 580.7810000000001 17.974700000000006 580.3420000000001L17.139000000000006 579.1680000000001C16.788100000000007 578.6750000000001 16.846600000000006 578.0020000000001 17.272800000000007 577.5760000000001L18.522000000000006 576.3310000000001C18.751800000000006 576.0970000000001 19.065100000000005 575.9680000000001 19.395200000000006 575.9680000000001C19.654200000000007 575.9680000000001 19.904900000000005 576.047 20.113800000000005 576.1970000000001L21.262800000000006 577.0250000000001C21.697300000000006 576.791 22.152700000000006 576.5980000000001 22.620700000000006 576.4520000000001L22.863000000000007 575.0320000000002C22.963300000000007 574.4340000000002 23.477100000000007 574.0000000000001 24.082900000000006 574.0000000000001L25.841900000000006 574.0000000000001C26.447700000000005 574.0000000000001 26.961600000000004 574.4340000000001 27.061800000000005 575.0320000000002L27.295900000000007 576.4190000000001C27.784700000000008 576.565 28.256800000000005 576.7610000000001 28.708100000000005 577.0000000000001L29.869500000000006 576.1720000000001C30.078500000000005 576.0220000000002 30.324900000000007 575.9430000000001 30.584000000000007 575.9430000000001C30.914000000000005 575.9430000000001 31.223200000000006 576.0720000000001 31.457200000000007 576.3060000000002L32.70230000000001 577.5510000000002C33.13260000000001 577.9770000000002 33.18690000000001 578.6500000000002 32.83590000000001 579.1430000000001L32.00870000000001 580.3000000000002C32.23850000000001 580.7350000000001 32.42650000000001 581.1900000000002 32.57270000000001 581.6620000000001L33.97650000000001 581.9000000000002C34.574000000000005 582.0010000000002 35.00850000000001 582.5150000000002 35.00020000000001 583.1200000000002L35.00020000000001 584.8790000000002C35.00020000000001 585.4850000000002 34.56570000000001 585.9990000000003 33.96820000000001 586.0990000000003ZM33.8847 583.12C33.8847 583.066 33.847 583.02 33.7927 583.0120000000001L32.0379 582.715C31.820700000000002 582.682 31.6411 582.519 31.5868 582.302C31.428 581.687 31.1856 581.0980000000001 30.8597 580.551C30.7469 580.359 30.755300000000002 580.1160000000001 30.884900000000002 579.937L31.916700000000002 578.487C31.946 578.4409999999999 31.9418 578.382 31.904200000000003 578.3449999999999L30.659200000000002 577.0999999999999C30.630000000000003 577.0709999999999 30.596500000000002 577.0669999999999 30.579800000000002 577.0669999999999C30.5589 577.0669999999999 30.538000000000004 577.0749999999999 30.517100000000003 577.0869999999999L29.0757 578.1229999999998C28.8919 578.2529999999998 28.6538 578.2609999999999 28.4615 578.1489999999998C27.9017 577.8179999999998 27.3 577.5719999999998 26.6692 577.4129999999998C26.4519 577.3589999999998 26.2889 577.1789999999997 26.2514 576.9579999999997L25.9589 575.2159999999998C25.9506 575.1609999999998 25.9046 575.1239999999998 25.8503 575.1239999999998L24.0913 575.1239999999998C24.037 575.1239999999998 23.991 575.1609999999998 23.9827 575.2159999999998L23.681900000000002 576.9829999999998C23.6442 577.1999999999998 23.4813 577.3759999999999 23.268200000000004 577.4339999999999C22.654100000000003 577.5929999999998 22.064900000000005 577.8439999999998 21.521800000000002 578.1699999999998C21.329600000000003 578.2819999999998 21.087300000000003 578.2739999999999 20.9035 578.1439999999999L19.462 577.1169999999998C19.4454 577.1039999999998 19.4244 577.0959999999999 19.3994 577.0959999999999C19.3785 577.0959999999999 19.3492 577.0999999999999 19.32 577.1289999999999L18.0749 578.3739999999999C18.037399999999998 578.4119999999999 18.0332 578.4739999999999 18.0624 578.516L19.1027 579.9789999999999C19.2322 580.1579999999999 19.244699999999998 580.396 19.131899999999998 580.5889999999999C18.810299999999998 581.136 18.5721 581.7289999999999 18.417499999999997 582.343C18.363299999999995 582.56 18.183499999999995 582.723 17.962099999999996 582.761L16.219899999999996 583.054C16.165599999999994 583.062 16.127899999999997 583.108 16.127899999999997 583.1619999999999L16.127899999999997 584.9209999999999C16.127899999999997 584.9749999999999 16.165599999999998 585.021 16.219899999999996 585.03L17.987199999999994 585.331C18.204499999999996 585.368 18.379899999999996 585.5310000000001 18.438399999999994 585.744C18.597199999999994 586.3580000000001 18.847799999999996 586.948 19.173699999999993 587.491C19.286499999999993 587.683 19.278199999999995 587.925 19.148699999999995 588.109L18.120899999999995 589.5500000000001C18.091699999999996 589.5960000000001 18.095899999999997 589.6550000000001 18.133399999999995 589.6920000000001L19.378499999999995 590.9370000000001C19.407699999999995 590.9670000000001 19.441199999999995 590.9710000000001 19.457899999999995 590.9710000000001C19.478799999999996 590.9710000000001 19.499699999999994 590.9630000000001 19.520499999999995 590.9500000000002L20.982799999999994 589.9100000000002C21.078899999999994 589.8390000000002 21.195999999999994 589.8050000000002 21.308799999999994 589.8050000000002C21.404799999999994 589.8050000000002 21.505099999999995 589.8300000000002 21.592899999999993 589.8800000000002C22.131899999999995 590.1900000000002 22.708399999999994 590.4280000000002 23.305899999999994 590.5820000000002C23.518899999999995 590.6360000000002 23.681899999999995 590.8120000000002 23.719499999999993 591.0330000000002L24.011899999999994 592.7880000000002C24.020299999999995 592.8430000000002 24.066299999999995 592.8800000000002 24.120599999999992 592.8800000000002L25.879499999999993 592.8800000000002C25.933799999999994 592.8800000000002 25.979799999999994 592.8430000000002 25.988199999999992 592.7880000000002L26.284699999999994 591.0330000000002C26.318199999999994 590.8160000000003 26.481199999999994 590.6360000000002 26.698399999999992 590.5820000000002C27.312499999999993 590.4240000000002 27.90169999999999 590.1810000000003 28.44899999999999 589.8550000000002C28.64109999999999 589.7420000000002 28.88349999999999 589.7510000000002 29.06309999999999 589.8800000000002L30.51299999999999 590.9120000000003C30.52969999999999 590.9250000000003 30.550599999999992 590.9330000000002 30.57559999999999 590.9330000000002C30.596499999999992 590.9330000000002 30.62569999999999 590.9290000000002 30.65499999999999 590.9000000000002L31.90009999999999 589.6550000000002C31.937699999999992 589.6170000000002 31.94179999999999 589.5540000000002 31.91259999999999 589.5130000000001L30.88069999999999 588.0590000000002C30.75109999999999 587.8750000000002 30.74269999999999 587.6370000000002 30.855599999999992 587.4450000000002C31.181399999999993 586.8970000000002 31.423799999999993 586.3080000000002 31.582499999999992 585.6940000000002C31.636799999999994 585.4810000000002 31.812399999999993 585.3180000000002 32.03369999999999 585.2800000000002L33.78849999999999 584.9880000000002C33.84289999999999 584.9800000000001 33.880399999999995 584.9340000000002 33.880399999999995 584.8790000000001L33.884699999999995 584.8790000000001ZM25.0021 588.314C22.6207 588.314 20.6862 586.379 20.6862 583.9979999999999C20.6862 581.616 22.6207 579.6819999999999 25.0021 579.6819999999999C27.383599999999998 579.6819999999999 29.317999999999998 581.6159999999999 29.317999999999998 583.9979999999999C29.317999999999998 586.3789999999999 27.383599999999998 588.314 25.0021 588.314ZM25.0021 580.81C23.243199999999998 580.81 21.8143 582.2389999999999 21.8143 583.9979999999999C21.8143 585.757 23.243199999999998 587.185 25.0021 587.185C26.7611 587.185 28.189899999999998 585.757 28.189899999999998 583.9979999999999C28.189899999999998 582.2389999999999 26.7611 580.81 25.0021 580.81Z " fill="#ffffff" transform="matrix(1,0,0,1,-14,-574)"></path></svg>