<svg id="SvgjsSvg1038"  xmlns="http://www.w3.org/2000/svg" version="1.1" xmlns:xlink="http://www.w3.org/1999/xlink" xmlns:svgjs="http://svgjs.com/svgjs" width="18" height="13"><defs id="SvgjsDefs1039"></defs><path id="SvgjsPath1040" class="table-icon" d="M878 416L878 415L886 415L886 416ZM888 414L888 413L896 413L896 414ZM878 412L878 411L886 411L886 412ZM888 412L888 411L896 411L896 412ZM878 414L878 413L886 413L886 414ZM888 410L888 409L896 409L896 410ZM878 410L878 409L886 409L886 410ZM888 416L888 415L896 415L896 416ZM878 418L878 417L886 417L886 418ZM888 418L888 417L896 417L896 418ZM878 420L878 419L886 419L886 420ZM888 420L888 419L896 419L896 420ZM878 422L878 421L886 421L886 422ZM888 422L888 421L896 421L896 422Z " fill="#b6b6b6" transform="matrix(1,0,0,1,-878,-409)"></path></svg>